HIERARCHY
ROOT Hips
{
	OFFSET 0.000000 0.000000 0.000000
	CHANNELS 6 Xposition Yposition Zposition Zrotation Yrotation Xrotation 
	JOINT LHipJoint
	{
		OFFSET 0.000000 0.000000 0.000000
		CHANNELS 3 Zrotation Yrotation Xrotation
		JOINT LeftUpLeg
		{
			OFFSET 1.363060 -1.794630 0.839290
			CHANNELS 3 Zrotation Yrotation Xrotation
			JOINT LeftLeg
			{
				OFFSET 2.448110 -6.726130 0.000000
				CHANNELS 3 Zrotation Yrotation Xrotation
				JOINT LeftFoot
				{
					OFFSET 2.562200 -7.039590 0.000000
					CHANNELS 3 Zrotation Yrotation Xrotation
					JOINT LeftToeBase
					{
						OFFSET 0.157640 -0.433110 2.322550
						CHANNELS 3 Zrotation Yrotation Xrotation
						End Site
						{
							OFFSET 0.000000 0.000000 0.000000
						}
					}
				}
			}
		}
	}
	JOINT RHipJoint
	{
		OFFSET 0.000000 0.000000 0.000000
		CHANNELS 3 Zrotation Yrotation Xrotation
		JOINT RightUpLeg
		{
			OFFSET -1.305520 -1.794630 0.839290
			CHANNELS 3 Zrotation Yrotation Xrotation
			JOINT RightLeg
			{
				OFFSET -2.542530 -6.985550 0.000000
				CHANNELS 3 Zrotation Yrotation Xrotation
				JOINT RightFoot
				{
					OFFSET -2.568260 -7.056230 0.000000
					CHANNELS 3 Zrotation Yrotation Xrotation
					JOINT RightToeBase
					{
						OFFSET -0.164730 -0.452590 2.363150
						CHANNELS 3 Zrotation Yrotation Xrotation
						End Site
						{
							OFFSET 0.000000 0.000000 0.000000
						}
					}
				}
			}
		}
	}
}
MOTION
Frames: 13
Frame Time: 0.008333
-10.952655 16.918104 -1.958031 -18.740769 82.480202 -4.487959 -9.048901 1.169619 3.672163 -16.468767 -3.414773 -37.162323 -2.872967 -0.512857 13.745239 1.094439 4.563047 -6.223035 0.371400 -0.000000 -24.623000 10.984380 -3.064438 -2.096778 3.116403 -14.637763 -11.747466 0.064409 -2.886210 44.304774 0.131727 11.232443 18.658482 4.842000 -0.000000 -84.954500
-10.716773 16.896115 -1.949507 -14.794903 82.483283 -0.673535 -9.107672 1.254991 3.760555 -16.702612 -4.158078 -36.956195 -2.762610 -0.305211 15.513254 1.152160 4.960597 -6.065107 0.406100 0.000000 -21.716900 11.083756 -2.815137 -2.157683 2.325006 -14.926778 -13.863657 -0.269260 -3.048405 48.403080 -0.134872 9.961721 20.254992 4.687800 0.000000 -81.953700
-10.485149 16.876093 -1.939469 -10.530823 82.503050 3.513563 -9.165112 1.314976 3.808448 -17.079833 -4.744750 -36.796811 -2.676724 -0.118081 17.215675 1.197969 5.276963 -5.976484 0.428300 -0.000000 -18.891200 11.151262 -2.556331 -2.172788 1.646053 -14.952666 -16.095310 -0.559190 -3.212811 52.328599 -0.405316 8.085486 21.196902 4.091500 0.000000 -78.408900
-10.258323 16.859474 -1.928894 -6.257039 82.537593 7.748673 -9.209185 1.345555 3.809631 -17.551893 -5.176522 -36.611388 -2.613201 0.038093 18.777505 1.236054 5.525732 -6.010619 0.430500 -0.000000 -16.372400 11.203784 -2.300495 -2.148501 1.093439 -14.738366 -18.401413 -0.812334 -3.389814 56.014305 -0.672916 5.735930 21.445309 3.133500 0.000000 -74.687200
-10.036616 16.847572 -1.918156 -2.035117 82.580048 11.948781 -9.226426 1.350087 3.761345 -18.095296 -5.479290 -36.313392 -2.571773 0.155647 20.119988 1.273724 5.742246 -6.201719 0.408900 -0.000000 -14.293100 11.257129 -2.047936 -2.095085 0.635344 -14.317548 -20.733075 -1.037545 -3.582203 59.396827 -0.932876 3.101042 21.010681 1.960700 0.000001 -71.047200
-9.819840 16.841428 -1.908799 1.745165 82.617875 15.708683 -9.211740 1.337552 3.662277 -18.652738 -5.647880 -35.863630 -2.550488 0.234624 21.214893 1.312916 5.925604 -6.577662 0.357800 0.000000 -12.703200 11.319056 -1.797750 -2.016002 0.289397 -13.703506 -23.040159 -1.241749 -3.781762 62.407008 -1.181185 0.366224 19.952190 0.734000 -0.000000 -67.608401
-9.607431 16.841703 -1.901727 4.945834 82.640179 18.874652 -9.168531 1.317222 3.515360 -19.191980 -5.692644 -35.222761 -2.548147 0.276808 22.031316 1.356152 6.085758 -7.135268 0.276100 0.000000 -11.580700 11.387223 -1.545676 -1.916681 0.039817 -12.918246 -25.272575 -1.426522 -3.976691 64.982844 -1.412244 -2.278959 18.359842 -0.392500 0.000000 -64.405900
-9.398729 16.848657 -1.897420 7.584279 82.641597 21.447872 -9.104207 1.294281 3.323827 -19.699084 -5.631088 -34.351208 -2.563326 0.284192 22.537767 1.404764 6.236194 -7.839197 0.167500 -0.000000 -10.878700 11.454887 -1.290172 -1.804665 -0.148960 -11.993402 -27.378493 -1.587131 -4.156948 67.069981 -1.617919 -4.661499 16.343673 -1.298100 -0.000000 -61.384700
-9.192340 16.862081 -1.897120 9.465097 82.623745 23.234779 -9.035853 1.273128 3.099495 -20.130533 -5.468155 -33.269929 -2.590864 0.262813 22.747892 1.455522 6.363921 -8.646897 0.036400 0.000000 -10.520600 11.506851 -1.036203 -1.678086 -0.260584 -10.946881 -29.330617 -1.715350 -4.308353 68.620118 -1.790208 -6.661571 14.046112 -1.921600 0.000000 -58.552900
-8.987143 16.881401 -1.901023 10.683754 82.593370 24.327334 -8.973201 1.253521 2.851306 -20.480077 -5.228506 -31.974399 -2.626621 0.215693 22.655337 1.506112 6.475381 -9.489445 -0.106600 -0.000000 -10.434400 11.534425 -0.789191 -1.541827 -0.322016 -9.818009 -31.098411 -1.800645 -4.425048 69.602577 -1.919521 -8.185630 11.610063 -2.249500 0.000000 -55.843600
-8.781806 16.905691 -1.909392 11.255283 82.560462 24.747412 -8.926051 1.235445 2.592633 -20.732195 -4.933660 -30.494377 -2.664975 0.147572 22.280067 1.552282 6.565934 -10.301558 -0.250400 0.000000 -10.538001 11.529196 -0.555921 -1.396385 -0.333601 -8.642074 -32.671461 -1.834311 -4.501417 70.000242 -1.999540 -9.199257 9.193161 -2.322100 0.000000 -53.320300
-8.574810 16.933699 -1.922304 11.183364 82.539309 24.517916 -8.902084 1.219520 2.342086 -20.871434 -4.611830 -28.887337 -2.699963 0.063816 21.662359 1.589635 6.627647 -11.028222 -0.384000 0.000000 -10.750700 11.484743 -0.342622 -1.238532 -0.282918 -7.454230 -34.063556 -1.811657 -4.533569 69.814184 -2.028755 -9.721572 6.948093 -2.213901 0.000000 -51.094800
-8.364975 16.964092 -1.939266 10.552686 82.542635 23.738988 -8.902644 1.206575 2.114391 -20.900352 -4.291893 -27.201023 -2.727627 -0.031203 20.840718 1.614898 6.657070 -11.625993 -0.497700 0.000000 -10.998600 11.400809 -0.152738 -1.067605 -0.169349 -6.293643 -35.291160 -1.733243 -4.521914 69.061560 -2.010450 -9.810459 5.003198 -2.007600 -0.000001 -49.308500
